<?xml version="1.0" encoding="UTF-8"?>
<!DOCTYPE svg
PUBLIC "-//W3C//DTD SVG 1.1//EN"
       "http://www.w3.org/Graphics/SVG/1.1/DTD/svg11.dtd">
<svg viewBox="53 29 1088 612" width="1035px" height="583px" xmlns="http://www.w3.org/2000/svg" version="1.1">
   <line x1="633" y1="549" x2="623" y2="549" style="stroke:#333;stroke-width:1;"/>
   <line x1="519" y1="229" x2="509" y2="229" style="stroke:#333;stroke-width:1;"/>
   <line x1="623" y1="549" x2="519" y2="229" style="stroke:#333;stroke-width:1;"/>
   <line x1="625.5" y1="549" x2="629.03553390593" y2="552.53553390593" style="stroke:#333;stroke-width:2;"/>
   <line x1="625.5" y1="549" x2="629.03553390593" y2="545.46446609407" style="stroke:#333;stroke-width:2;"/>
   <line x1="514" y1="229" x2="517.53553390593" y2="232.53553390593" style="stroke:#333;stroke-width:2;"/>
   <line x1="514" y1="229" x2="517.53553390593" y2="225.46446609407" style="stroke:#333;stroke-width:2;"/>
   <line x1="724" y1="529" x2="734" y2="529" style="stroke:#bbb;stroke-width:1;"/>
   <line x1="864" y1="403" x2="874" y2="403" style="stroke:#bbb;stroke-width:1;"/>
   <line x1="734" y1="529" x2="864" y2="403" style="stroke:#bbb;stroke-width:1;"/>
   <line x1="731.5" y1="529" x2="727.96446609407" y2="532.53553390593" style="stroke:#bbb;stroke-width:2;"/>
   <line x1="731.5" y1="529" x2="727.96446609407" y2="525.46446609407" style="stroke:#bbb;stroke-width:2;"/>
   <line x1="869" y1="403" x2="865.46446609407" y2="406.53553390593" style="stroke:#bbb;stroke-width:2;"/>
   <line x1="869" y1="403" x2="865.46446609407" y2="399.46446609407" style="stroke:#bbb;stroke-width:2;"/>
   <line x1="214" y1="262" x2="224" y2="262" style="stroke:#c00;stroke-width:1;"/>
   <line x1="354" y1="229" x2="364" y2="229" style="stroke:#c00;stroke-width:1;"/>
   <line x1="224" y1="262" x2="354" y2="229" style="stroke:#c00;stroke-width:1;"/>
   <line x1="221.5" y1="262" x2="217.96446609407" y2="265.53553390593" style="stroke:#c00;stroke-width:2;"/>
   <line x1="221.5" y1="262" x2="217.96446609407" y2="258.46446609407" style="stroke:#c00;stroke-width:2;"/>
   <line x1="359" y1="229" x2="355.46446609407" y2="232.53553390593" style="stroke:#c00;stroke-width:2;"/>
   <line x1="359" y1="229" x2="355.46446609407" y2="225.46446609407" style="stroke:#c00;stroke-width:2;"/>
   <line x1="141" y1="242" x2="131" y2="242" style="stroke:#bbb;stroke-width:1;"/>
   <line x1="121" y1="129" x2="131" y2="129" style="stroke:#bbb;stroke-width:1;"/>
   <line x1="131" y1="242" x2="121" y2="129" style="stroke:#bbb;stroke-width:1;"/>
   <line x1="133.5" y1="242" x2="137.03553390593" y2="245.53553390593" style="stroke:#bbb;stroke-width:2;"/>
   <line x1="133.5" y1="242" x2="137.03553390593" y2="238.46446609407" style="stroke:#bbb;stroke-width:2;"/>
   <line x1="126" y1="129" x2="122.46446609407" y2="132.53553390593" style="stroke:#bbb;stroke-width:2;"/>
   <line x1="126" y1="129" x2="122.46446609407" y2="125.46446609407" style="stroke:#bbb;stroke-width:2;"/>
   <line x1="609" y1="99" x2="599" y2="99" style="stroke:#bbb;stroke-width:1;"/>
   <line x1="519" y1="229" x2="509" y2="229" style="stroke:#bbb;stroke-width:1;"/>
   <line x1="599" y1="99" x2="519" y2="229" style="stroke:#bbb;stroke-width:1;"/>
   <line x1="601.5" y1="99" x2="605.03553390593" y2="102.53553390593" style="stroke:#bbb;stroke-width:2;"/>
   <line x1="601.5" y1="99" x2="605.03553390593" y2="95.464466094067" style="stroke:#bbb;stroke-width:2;"/>
   <line x1="514" y1="229" x2="517.53553390593" y2="232.53553390593" style="stroke:#bbb;stroke-width:2;"/>
   <line x1="514" y1="229" x2="517.53553390593" y2="225.46446609407" style="stroke:#bbb;stroke-width:2;"/>
   <line x1="699" y1="119" x2="709" y2="119" style="stroke:#0bf;stroke-width:1;"/>
   <line x1="834" y1="74" x2="844" y2="74" style="stroke:#0bf;stroke-width:1;"/>
   <line x1="709" y1="119" x2="834" y2="74" style="stroke:#0bf;stroke-width:1;"/>
   <line x1="706.5" y1="119" x2="702.96446609407" y2="122.53553390593" style="stroke:#0bf;stroke-width:2;"/>
   <line x1="706.5" y1="119" x2="702.96446609407" y2="115.46446609407" style="stroke:#0bf;stroke-width:2;"/>
   <line x1="839" y1="74" x2="835.46446609407" y2="77.535533905933" style="stroke:#0bf;stroke-width:2;"/>
   <line x1="839" y1="74" x2="835.46446609407" y2="70.464466094067" style="stroke:#0bf;stroke-width:2;"/>
   <line x1="364" y1="369" x2="354" y2="369" style="stroke:#0b0;stroke-width:1;"/>
   <line x1="212" y1="495" x2="202" y2="495" style="stroke:#0b0;stroke-width:1;"/>
   <line x1="354" y1="369" x2="212" y2="495" style="stroke:#0b0;stroke-width:1;"/>
   <line x1="356.5" y1="369" x2="360.03553390593" y2="372.53553390593" style="stroke:#0b0;stroke-width:2;"/>
   <line x1="356.5" y1="369" x2="360.03553390593" y2="365.46446609407" style="stroke:#0b0;stroke-width:2;"/>
   <line x1="207" y1="495" x2="210.53553390593" y2="498.53553390593" style="stroke:#0b0;stroke-width:2;"/>
   <line x1="207" y1="495" x2="210.53553390593" y2="491.46446609407" style="stroke:#0b0;stroke-width:2;"/>
   <line x1="617" y1="389" x2="607" y2="389" style="stroke:#cb0;stroke-width:1;"/>
   <line x1="519" y1="229" x2="509" y2="229" style="stroke:#cb0;stroke-width:1;"/>
   <line x1="607" y1="389" x2="519" y2="229" style="stroke:#cb0;stroke-width:1;"/>
   <line x1="609.5" y1="389" x2="613.03553390593" y2="392.53553390593" style="stroke:#cb0;stroke-width:2;"/>
   <line x1="609.5" y1="389" x2="613.03553390593" y2="385.46446609407" style="stroke:#cb0;stroke-width:2;"/>
   <line x1="514" y1="229" x2="517.53553390593" y2="232.53553390593" style="stroke:#cb0;stroke-width:2;"/>
   <line x1="514" y1="229" x2="517.53553390593" y2="225.46446609407" style="stroke:#cb0;stroke-width:2;"/>
   <line x1="712" y1="369" x2="722" y2="369" style="stroke:#c00;stroke-width:1;"/>
   <line x1="864" y1="403" x2="874" y2="403" style="stroke:#c00;stroke-width:1;"/>
   <line x1="722" y1="369" x2="864" y2="403" style="stroke:#c00;stroke-width:1;"/>
   <line x1="719.5" y1="369" x2="715.96446609407" y2="372.53553390593" style="stroke:#c00;stroke-width:2;"/>
   <line x1="719.5" y1="369" x2="715.96446609407" y2="365.46446609407" style="stroke:#c00;stroke-width:2;"/>
   <line x1="869" y1="403" x2="865.46446609407" y2="406.53553390593" style="stroke:#c00;stroke-width:2;"/>
   <line x1="869" y1="403" x2="865.46446609407" y2="399.46446609407" style="stroke:#c00;stroke-width:2;"/>
   <line x1="502" y1="567" x2="512" y2="567" style="stroke:#c00;stroke-width:1;"/>
   <line x1="519" y1="229" x2="509" y2="229" style="stroke:#c00;stroke-width:1;"/>
   <line x1="512" y1="567" x2="519" y2="229" style="stroke:#c00;stroke-width:1;"/>
   <line x1="509.5" y1="567" x2="505.96446609407" y2="570.53553390593" style="stroke:#c00;stroke-width:2;"/>
   <line x1="509.5" y1="567" x2="505.96446609407" y2="563.46446609407" style="stroke:#c00;stroke-width:2;"/>
   <line x1="514" y1="229" x2="517.53553390593" y2="232.53553390593" style="stroke:#c00;stroke-width:2;"/>
   <line x1="514" y1="229" x2="517.53553390593" y2="225.46446609407" style="stroke:#c00;stroke-width:2;"/>
   <line x1="389" y1="587" x2="379" y2="587" style="stroke:#333;stroke-width:1;"/>
   <line x1="212" y1="495" x2="202" y2="495" style="stroke:#333;stroke-width:1;"/>
   <line x1="379" y1="587" x2="212" y2="495" style="stroke:#333;stroke-width:1;"/>
   <line x1="381.5" y1="587" x2="385.03553390593" y2="590.53553390593" style="stroke:#333;stroke-width:2;"/>
   <line x1="381.5" y1="587" x2="385.03553390593" y2="583.46446609407" style="stroke:#333;stroke-width:2;"/>
   <line x1="207" y1="495" x2="210.53553390593" y2="498.53553390593" style="stroke:#333;stroke-width:2;"/>
   <line x1="207" y1="495" x2="210.53553390593" y2="491.46446609407" style="stroke:#333;stroke-width:2;"/>
   <line x1="984" y1="443" x2="994" y2="443" style="stroke:#bbb;stroke-width:1;"/>
   <line x1="986" y1="263" x2="996" y2="263" style="stroke:#bbb;stroke-width:1;"/>
   <line x1="994" y1="443" x2="986" y2="263" style="stroke:#bbb;stroke-width:1;"/>
   <line x1="991.5" y1="443" x2="987.96446609407" y2="446.53553390593" style="stroke:#bbb;stroke-width:2;"/>
   <line x1="991.5" y1="443" x2="987.96446609407" y2="439.46446609407" style="stroke:#bbb;stroke-width:2;"/>
   <line x1="991" y1="263" x2="987.46446609407" y2="266.53553390593" style="stroke:#bbb;stroke-width:2;"/>
   <line x1="991" y1="263" x2="987.46446609407" y2="259.46446609407" style="stroke:#bbb;stroke-width:2;"/>
   <line x1="784" y1="228" x2="774" y2="228" style="stroke:#b0b;stroke-width:1;"/>
   <line x1="519" y1="229" x2="509" y2="229" style="stroke:#b0b;stroke-width:1;"/>
   <line x1="774" y1="228" x2="519" y2="229" style="stroke:#b0b;stroke-width:1;"/>
   <line x1="776.5" y1="228" x2="780.03553390593" y2="231.53553390593" style="stroke:#b0b;stroke-width:2;"/>
   <line x1="776.5" y1="228" x2="780.03553390593" y2="224.46446609407" style="stroke:#b0b;stroke-width:2;"/>
   <line x1="514" y1="229" x2="517.53553390593" y2="232.53553390593" style="stroke:#b0b;stroke-width:2;"/>
   <line x1="514" y1="229" x2="517.53553390593" y2="225.46446609407" style="stroke:#b0b;stroke-width:2;"/>
   <line x1="864" y1="208" x2="874" y2="208" style="stroke:#333;stroke-width:1;"/>
   <line x1="986" y1="263" x2="996" y2="263" style="stroke:#333;stroke-width:1;"/>
   <line x1="874" y1="208" x2="986" y2="263" style="stroke:#333;stroke-width:1;"/>
   <line x1="871.5" y1="208" x2="867.96446609407" y2="211.53553390593" style="stroke:#333;stroke-width:2;"/>
   <line x1="871.5" y1="208" x2="867.96446609407" y2="204.46446609407" style="stroke:#333;stroke-width:2;"/>
   <line x1="991" y1="263" x2="987.46446609407" y2="266.53553390593" style="stroke:#333;stroke-width:2;"/>
   <line x1="991" y1="263" x2="987.46446609407" y2="259.46446609407" style="stroke:#333;stroke-width:2;"/>
   <rect width="91" height="20" x="633" y="479" style="fill:#007;stroke:black;"/>
   <text width="91" height="20" x="638" y="493" style="fill:#fff;" font-family="Arial" font-size="16px"> A_realise</text>
   <rect width="91" height="20" x="633" y="499" style="fill:#aea;stroke:black;"/>
   <text width="91" height="20" x="638" y="513" style="fill:black;" font-family="Arial" font-size="16px">idARealise</text>
   <rect width="91" height="20" x="633" y="519" style="fill:none;stroke:black;"/>
   <text width="91" height="20" x="638" y="533" style="fill:black;" font-family="Arial" font-size="16px">idPersonne</text>
   <rect width="91" height="20" x="633" y="539" style="fill:none;stroke:black;"/>
   <text width="91" height="20" x="638" y="553" style="fill:black;" font-family="Arial" font-size="16px">idFilm</text>
   <rect width="73" height="20" x="141" y="192" style="fill:#007;stroke:black;"/>
   <text width="73" height="20" x="146" y="206" style="fill:#fff;" font-family="Arial" font-size="16px"> Definit</text>
   <rect width="73" height="20" x="141" y="212" style="fill:#aea;stroke:black;"/>
   <text width="73" height="20" x="146" y="226" style="fill:black;" font-family="Arial" font-size="16px">idDefinit</text>
   <rect width="73" height="20" x="141" y="232" style="fill:none;stroke:black;"/>
   <text width="73" height="20" x="146" y="246" style="fill:black;" font-family="Arial" font-size="16px">idMotCle</text>
   <rect width="73" height="20" x="141" y="252" style="fill:none;stroke:black;"/>
   <text width="73" height="20" x="146" y="266" style="fill:black;" font-family="Arial" font-size="16px">idFilm</text>
   <rect width="90" height="20" x="609" y="49" style="fill:#007;stroke:black;"/>
   <text width="90" height="20" x="614" y="63" style="fill:#fff;" font-family="Arial" font-size="16px"> Est_genre</text>
   <rect width="90" height="20" x="609" y="69" style="fill:#aea;stroke:black;"/>
   <text width="90" height="20" x="614" y="83" style="fill:black;" font-family="Arial" font-size="16px">idEstGenre</text>
   <rect width="90" height="20" x="609" y="89" style="fill:none;stroke:black;"/>
   <text width="90" height="20" x="614" y="103" style="fill:black;" font-family="Arial" font-size="16px">idFilm</text>
   <rect width="90" height="20" x="609" y="109" style="fill:none;stroke:black;"/>
   <text width="90" height="20" x="614" y="123" style="fill:black;" font-family="Arial" font-size="16px">idGenre</text>
   <rect width="145" height="20" x="364" y="199" style="fill:#007;stroke:black;"/>
   <text width="145" height="20" x="369" y="213" style="fill:#fff;" font-family="Arial" font-size="16px"> Film</text>
   <rect width="145" height="20" x="364" y="219" style="fill:#aea;stroke:black;"/>
   <text width="145" height="20" x="369" y="233" style="fill:black;" font-family="Arial" font-size="16px">idFilm</text>
   <rect width="145" height="20" x="364" y="239" style="fill:none;stroke:black;"/>
   <text width="145" height="20" x="369" y="253" style="fill:black;" font-family="Arial" font-size="16px">resumeFilm</text>
   <rect width="145" height="20" x="364" y="259" style="fill:none;stroke:black;"/>
   <text width="145" height="20" x="369" y="273" style="fill:black;" font-family="Arial" font-size="16px">anneeFilm</text>
   <rect width="145" height="20" x="364" y="279" style="fill:none;stroke:black;"/>
   <text width="145" height="20" x="369" y="293" style="fill:black;" font-family="Arial" font-size="16px">dureeFilm</text>
   <rect width="145" height="20" x="364" y="299" style="fill:none;stroke:black;"/>
   <text width="145" height="20" x="369" y="313" style="fill:black;" font-family="Arial" font-size="16px">nomFilm</text>
   <rect width="145" height="20" x="364" y="319" style="fill:none;stroke:black;"/>
   <text width="145" height="20" x="369" y="333" style="fill:black;" font-family="Arial" font-size="16px">afficheFilm</text>
   <rect width="145" height="20" x="364" y="339" style="fill:none;stroke:black;"/>
   <text width="145" height="20" x="369" y="353" style="fill:black;" font-family="Arial" font-size="16px">lienBandeAnnonce</text>
   <rect width="145" height="20" x="364" y="359" style="fill:none;stroke:black;"/>
   <text width="145" height="20" x="369" y="373" style="fill:black;" font-family="Arial" font-size="16px">idUtilisateur</text>
   <rect width="86" height="20" x="844" y="44" style="fill:#007;stroke:black;"/>
   <text width="86" height="20" x="849" y="58" style="fill:#fff;" font-family="Arial" font-size="16px"> Genre</text>
   <rect width="86" height="20" x="844" y="64" style="fill:#aea;stroke:black;"/>
   <text width="86" height="20" x="849" y="78" style="fill:black;" font-family="Arial" font-size="16px">idGenre</text>
   <rect width="86" height="20" x="844" y="84" style="fill:none;stroke:black;"/>
   <text width="86" height="20" x="849" y="98" style="fill:black;" font-family="Arial" font-size="16px">nomGenre</text>
   <rect width="95" height="20" x="617" y="319" style="fill:#007;stroke:black;"/>
   <text width="95" height="20" x="622" y="333" style="fill:#fff;" font-family="Arial" font-size="16px"> Joue_Dans</text>
   <rect width="95" height="20" x="617" y="339" style="fill:#aea;stroke:black;"/>
   <text width="95" height="20" x="622" y="353" style="fill:black;" font-family="Arial" font-size="16px">idJoueDans</text>
   <rect width="95" height="20" x="617" y="359" style="fill:none;stroke:black;"/>
   <text width="95" height="20" x="622" y="373" style="fill:black;" font-family="Arial" font-size="16px">idPersonne</text>
   <rect width="95" height="20" x="617" y="379" style="fill:none;stroke:black;"/>
   <text width="95" height="20" x="622" y="393" style="fill:black;" font-family="Arial" font-size="16px">idFilm</text>
   <rect width="95" height="20" x="617" y="399" style="fill:none;stroke:black;"/>
   <text width="95" height="20" x="622" y="413" style="fill:black;" font-family="Arial" font-size="16px">role</text>
   <rect width="73" height="20" x="131" y="99" style="fill:#007;stroke:black;"/>
   <text width="73" height="20" x="136" y="113" style="fill:#fff;" font-family="Arial" font-size="16px"> MotCle</text>
   <rect width="73" height="20" x="131" y="119" style="fill:#aea;stroke:black;"/>
   <text width="73" height="20" x="136" y="133" style="fill:black;" font-family="Arial" font-size="16px">idMotCle</text>
   <rect width="73" height="20" x="131" y="139" style="fill:none;stroke:black;"/>
   <text width="73" height="20" x="136" y="153" style="fill:black;" font-family="Arial" font-size="16px">MotCle</text>
   <rect width="113" height="20" x="389" y="497" style="fill:#007;stroke:black;"/>
   <text width="113" height="20" x="394" y="511" style="fill:#fff;" font-family="Arial" font-size="16px"> Note</text>
   <rect width="113" height="20" x="389" y="517" style="fill:#aea;stroke:black;"/>
   <text width="113" height="20" x="394" y="531" style="fill:black;" font-family="Arial" font-size="16px">idNote</text>
   <rect width="113" height="20" x="389" y="537" style="fill:none;stroke:black;"/>
   <text width="113" height="20" x="394" y="551" style="fill:black;" font-family="Arial" font-size="16px">noteUtilisateur</text>
   <rect width="113" height="20" x="389" y="557" style="fill:none;stroke:black;"/>
   <text width="113" height="20" x="394" y="571" style="fill:black;" font-family="Arial" font-size="16px">idFilm</text>
   <rect width="113" height="20" x="389" y="577" style="fill:none;stroke:black;"/>
   <text width="113" height="20" x="394" y="591" style="fill:black;" font-family="Arial" font-size="16px">idUtilisateur</text>
   <rect width="77" height="20" x="996" y="233" style="fill:#007;stroke:black;"/>
   <text width="77" height="20" x="1001" y="247" style="fill:#fff;" font-family="Arial" font-size="16px"> Pays</text>
   <rect width="77" height="20" x="996" y="253" style="fill:#aea;stroke:black;"/>
   <text width="77" height="20" x="1001" y="267" style="fill:black;" font-family="Arial" font-size="16px">idPays</text>
   <rect width="77" height="20" x="996" y="273" style="fill:none;stroke:black;"/>
   <text width="77" height="20" x="1001" y="287" style="fill:black;" font-family="Arial" font-size="16px">nomPays</text>
   <rect width="110" height="20" x="874" y="373" style="fill:#007;stroke:black;"/>
   <text width="110" height="20" x="879" y="387" style="fill:#fff;" font-family="Arial" font-size="16px"> Personne</text>
   <rect width="110" height="20" x="874" y="393" style="fill:#aea;stroke:black;"/>
   <text width="110" height="20" x="879" y="407" style="fill:black;" font-family="Arial" font-size="16px">idPersonne</text>
   <rect width="110" height="20" x="874" y="413" style="fill:none;stroke:black;"/>
   <text width="110" height="20" x="879" y="427" style="fill:black;" font-family="Arial" font-size="16px">nomPersonne</text>
   <rect width="110" height="20" x="874" y="433" style="fill:none;stroke:black;"/>
   <text width="110" height="20" x="879" y="447" style="fill:black;" font-family="Arial" font-size="16px">idPays</text>
   <rect width="134" height="20" x="68" y="465" style="fill:#007;stroke:black;"/>
   <text width="134" height="20" x="73" y="479" style="fill:#fff;" font-family="Arial" font-size="16px"> Utilisateur</text>
   <rect width="134" height="20" x="68" y="485" style="fill:#aea;stroke:black;"/>
   <text width="134" height="20" x="73" y="499" style="fill:black;" font-family="Arial" font-size="16px">idUtilisateur</text>
   <rect width="134" height="20" x="68" y="505" style="fill:none;stroke:black;"/>
   <text width="134" height="20" x="73" y="519" style="fill:black;" font-family="Arial" font-size="16px">pseudoUtilisateur</text>
   <rect width="80" height="20" x="784" y="158" style="fill:#007;stroke:black;"/>
   <text width="80" height="20" x="789" y="172" style="fill:#fff;" font-family="Arial" font-size="16px"> Vient_de</text>
   <rect width="80" height="20" x="784" y="178" style="fill:#aea;stroke:black;"/>
   <text width="80" height="20" x="789" y="192" style="fill:black;" font-family="Arial" font-size="16px">idVientDe</text>
   <rect width="80" height="20" x="784" y="198" style="fill:none;stroke:black;"/>
   <text width="80" height="20" x="789" y="212" style="fill:black;" font-family="Arial" font-size="16px">idPays</text>
   <rect width="80" height="20" x="784" y="218" style="fill:none;stroke:black;"/>
   <text width="80" height="20" x="789" y="232" style="fill:black;" font-family="Arial" font-size="16px">idFilm</text>
</svg>
