<?xml version="1.0" encoding="UTF-8"?>
<!DOCTYPE svg
PUBLIC "-//W3C//DTD SVG 1.1//EN"
       "http://www.w3.org/Graphics/SVG/1.1/DTD/svg11.dtd">
<svg viewBox="57 2 1250 745" width="1193px" height="743px" xmlns="http://www.w3.org/2000/svg" version="1.1">
   <line x1="625" y1="700" x2="615" y2="700" style="stroke:#0bf;stroke-width:1;"/>
   <line x1="545" y1="267" x2="535" y2="267" style="stroke:#0bf;stroke-width:1;"/>
   <line x1="615" y1="700" x2="545" y2="267" style="stroke:#0bf;stroke-width:1;"/>
   <line x1="617.5" y1="700" x2="621.03553390593" y2="703.53553390593" style="stroke:#0bf;stroke-width:2;"/>
   <line x1="617.5" y1="700" x2="621.03553390593" y2="696.46446609407" style="stroke:#0bf;stroke-width:2;"/>
   <line x1="540" y1="267" x2="543.53553390593" y2="270.53553390593" style="stroke:#0bf;stroke-width:2;"/>
   <line x1="540" y1="267" x2="543.53553390593" y2="263.46446609407" style="stroke:#0bf;stroke-width:2;"/>
   <line x1="716" y1="720" x2="726" y2="720" style="stroke:#c00;stroke-width:1;"/>
   <line x1="1115" y1="416" x2="1125" y2="416" style="stroke:#c00;stroke-width:1;"/>
   <line x1="726" y1="720" x2="1115" y2="416" style="stroke:#c00;stroke-width:1;"/>
   <line x1="723.5" y1="720" x2="719.96446609407" y2="723.53553390593" style="stroke:#c00;stroke-width:2;"/>
   <line x1="723.5" y1="720" x2="719.96446609407" y2="716.46446609407" style="stroke:#c00;stroke-width:2;"/>
   <line x1="1120" y1="416" x2="1116.4644660941" y2="419.53553390593" style="stroke:#c00;stroke-width:2;"/>
   <line x1="1120" y1="416" x2="1116.4644660941" y2="412.46446609407" style="stroke:#c00;stroke-width:2;"/>
   <line x1="769" y1="401" x2="759" y2="401" style="stroke:#c00;stroke-width:1;"/>
   <line x1="545" y1="267" x2="535" y2="267" style="stroke:#c00;stroke-width:1;"/>
   <line x1="759" y1="401" x2="545" y2="267" style="stroke:#c00;stroke-width:1;"/>
   <line x1="761.5" y1="401" x2="765.03553390593" y2="404.53553390593" style="stroke:#c00;stroke-width:2;"/>
   <line x1="761.5" y1="401" x2="765.03553390593" y2="397.46446609407" style="stroke:#c00;stroke-width:2;"/>
   <line x1="540" y1="267" x2="543.53553390593" y2="270.53553390593" style="stroke:#c00;stroke-width:2;"/>
   <line x1="540" y1="267" x2="543.53553390593" y2="263.46446609407" style="stroke:#c00;stroke-width:2;"/>
   <line x1="860" y1="381" x2="870" y2="381" style="stroke:#cb0;stroke-width:1;"/>
   <line x1="1115" y1="416" x2="1125" y2="416" style="stroke:#cb0;stroke-width:1;"/>
   <line x1="870" y1="381" x2="1115" y2="416" style="stroke:#cb0;stroke-width:1;"/>
   <line x1="867.5" y1="381" x2="863.96446609407" y2="384.53553390593" style="stroke:#cb0;stroke-width:2;"/>
   <line x1="867.5" y1="381" x2="863.96446609407" y2="377.46446609407" style="stroke:#cb0;stroke-width:2;"/>
   <line x1="1120" y1="416" x2="1116.4644660941" y2="419.53553390593" style="stroke:#cb0;stroke-width:2;"/>
   <line x1="1120" y1="416" x2="1116.4644660941" y2="412.46446609407" style="stroke:#cb0;stroke-width:2;"/>
   <line x1="316" y1="195" x2="326" y2="195" style="stroke:#b0b;stroke-width:1;"/>
   <line x1="380" y1="267" x2="390" y2="267" style="stroke:#b0b;stroke-width:1;"/>
   <line x1="326" y1="195" x2="380" y2="267" style="stroke:#b0b;stroke-width:1;"/>
   <line x1="323.5" y1="195" x2="319.96446609407" y2="198.53553390593" style="stroke:#b0b;stroke-width:2;"/>
   <line x1="323.5" y1="195" x2="319.96446609407" y2="191.46446609407" style="stroke:#b0b;stroke-width:2;"/>
   <line x1="385" y1="267" x2="381.46446609407" y2="270.53553390593" style="stroke:#b0b;stroke-width:2;"/>
   <line x1="385" y1="267" x2="381.46446609407" y2="263.46446609407" style="stroke:#b0b;stroke-width:2;"/>
   <line x1="243" y1="175" x2="233" y2="175" style="stroke:#0b0;stroke-width:1;"/>
   <line x1="155" y1="211" x2="145" y2="211" style="stroke:#0b0;stroke-width:1;"/>
   <line x1="233" y1="175" x2="155" y2="211" style="stroke:#0b0;stroke-width:1;"/>
   <line x1="235.5" y1="175" x2="239.03553390593" y2="178.53553390593" style="stroke:#0b0;stroke-width:2;"/>
   <line x1="235.5" y1="175" x2="239.03553390593" y2="171.46446609407" style="stroke:#0b0;stroke-width:2;"/>
   <line x1="150" y1="211" x2="153.53553390593" y2="214.53553390593" style="stroke:#0b0;stroke-width:2;"/>
   <line x1="150" y1="211" x2="153.53553390593" y2="207.46446609407" style="stroke:#0b0;stroke-width:2;"/>
   <line x1="837" y1="176" x2="827" y2="176" style="stroke:#b0b;stroke-width:1;"/>
   <line x1="545" y1="267" x2="535" y2="267" style="stroke:#b0b;stroke-width:1;"/>
   <line x1="827" y1="176" x2="545" y2="267" style="stroke:#b0b;stroke-width:1;"/>
   <line x1="829.5" y1="176" x2="833.03553390593" y2="179.53553390593" style="stroke:#b0b;stroke-width:2;"/>
   <line x1="829.5" y1="176" x2="833.03553390593" y2="172.46446609407" style="stroke:#b0b;stroke-width:2;"/>
   <line x1="540" y1="267" x2="543.53553390593" y2="270.53553390593" style="stroke:#b0b;stroke-width:2;"/>
   <line x1="540" y1="267" x2="543.53553390593" y2="263.46446609407" style="stroke:#b0b;stroke-width:2;"/>
   <line x1="837" y1="196" x2="827" y2="196" style="stroke:#b0b;stroke-width:1;"/>
   <line x1="814" y1="47" x2="824" y2="47" style="stroke:#b0b;stroke-width:1;"/>
   <line x1="827" y1="196" x2="814" y2="47" style="stroke:#b0b;stroke-width:1;"/>
   <line x1="829.5" y1="196" x2="833.03553390593" y2="199.53553390593" style="stroke:#b0b;stroke-width:2;"/>
   <line x1="829.5" y1="196" x2="833.03553390593" y2="192.46446609407" style="stroke:#b0b;stroke-width:2;"/>
   <line x1="819" y1="47" x2="815.46446609407" y2="50.535533905933" style="stroke:#b0b;stroke-width:2;"/>
   <line x1="819" y1="47" x2="815.46446609407" y2="43.464466094067" style="stroke:#b0b;stroke-width:2;"/>
   <line x1="390" y1="407" x2="380" y2="407" style="stroke:#cb0;stroke-width:1;"/>
   <line x1="261" y1="439" x2="251" y2="439" style="stroke:#cb0;stroke-width:1;"/>
   <line x1="380" y1="407" x2="261" y2="439" style="stroke:#cb0;stroke-width:1;"/>
   <line x1="382.5" y1="407" x2="386.03553390593" y2="410.53553390593" style="stroke:#cb0;stroke-width:2;"/>
   <line x1="382.5" y1="407" x2="386.03553390593" y2="403.46446609407" style="stroke:#cb0;stroke-width:2;"/>
   <line x1="256" y1="439" x2="259.53553390593" y2="442.53553390593" style="stroke:#cb0;stroke-width:2;"/>
   <line x1="256" y1="439" x2="259.53553390593" y2="435.46446609407" style="stroke:#cb0;stroke-width:2;"/>
   <line x1="700" y1="522" x2="690" y2="522" style="stroke:#0bf;stroke-width:1;"/>
   <line x1="545" y1="267" x2="535" y2="267" style="stroke:#0bf;stroke-width:1;"/>
   <line x1="690" y1="522" x2="545" y2="267" style="stroke:#0bf;stroke-width:1;"/>
   <line x1="692.5" y1="522" x2="696.03553390593" y2="525.53553390593" style="stroke:#0bf;stroke-width:2;"/>
   <line x1="692.5" y1="522" x2="696.03553390593" y2="518.46446609407" style="stroke:#0bf;stroke-width:2;"/>
   <line x1="540" y1="267" x2="543.53553390593" y2="270.53553390593" style="stroke:#0bf;stroke-width:2;"/>
   <line x1="540" y1="267" x2="543.53553390593" y2="263.46446609407" style="stroke:#0bf;stroke-width:2;"/>
   <line x1="795" y1="502" x2="805" y2="502" style="stroke:#cb0;stroke-width:1;"/>
   <line x1="1115" y1="416" x2="1125" y2="416" style="stroke:#cb0;stroke-width:1;"/>
   <line x1="805" y1="502" x2="1115" y2="416" style="stroke:#cb0;stroke-width:1;"/>
   <line x1="802.5" y1="502" x2="798.96446609407" y2="505.53553390593" style="stroke:#cb0;stroke-width:2;"/>
   <line x1="802.5" y1="502" x2="798.96446609407" y2="498.46446609407" style="stroke:#cb0;stroke-width:2;"/>
   <line x1="1120" y1="416" x2="1116.4644660941" y2="419.53553390593" style="stroke:#cb0;stroke-width:2;"/>
   <line x1="1120" y1="416" x2="1116.4644660941" y2="412.46446609407" style="stroke:#cb0;stroke-width:2;"/>
   <line x1="1235" y1="456" x2="1245" y2="456" style="stroke:#cb0;stroke-width:1;"/>
   <line x1="1231" y1="75" x2="1221" y2="75" style="stroke:#cb0;stroke-width:1;"/>
   <line x1="1245" y1="456" x2="1231" y2="75" style="stroke:#cb0;stroke-width:1;"/>
   <line x1="1242.5" y1="456" x2="1238.9644660941" y2="459.53553390593" style="stroke:#cb0;stroke-width:2;"/>
   <line x1="1242.5" y1="456" x2="1238.9644660941" y2="452.46446609407" style="stroke:#cb0;stroke-width:2;"/>
   <line x1="1226" y1="75" x2="1229.5355339059" y2="78.535533905933" style="stroke:#cb0;stroke-width:2;"/>
   <line x1="1226" y1="75" x2="1229.5355339059" y2="71.464466094067" style="stroke:#cb0;stroke-width:2;"/>
   <line x1="1154" y1="252" x2="1144" y2="252" style="stroke:#cb0;stroke-width:1;"/>
   <line x1="545" y1="267" x2="535" y2="267" style="stroke:#cb0;stroke-width:1;"/>
   <line x1="1144" y1="252" x2="545" y2="267" style="stroke:#cb0;stroke-width:1;"/>
   <line x1="1146.5" y1="252" x2="1150.0355339059" y2="255.53553390593" style="stroke:#cb0;stroke-width:2;"/>
   <line x1="1146.5" y1="252" x2="1150.0355339059" y2="248.46446609407" style="stroke:#cb0;stroke-width:2;"/>
   <line x1="540" y1="267" x2="543.53553390593" y2="270.53553390593" style="stroke:#cb0;stroke-width:2;"/>
   <line x1="540" y1="267" x2="543.53553390593" y2="263.46446609407" style="stroke:#cb0;stroke-width:2;"/>
   <line x1="1219" y1="232" x2="1229" y2="232" style="stroke:#bbb;stroke-width:1;"/>
   <line x1="1231" y1="75" x2="1221" y2="75" style="stroke:#bbb;stroke-width:1;"/>
   <line x1="1229" y1="232" x2="1231" y2="75" style="stroke:#bbb;stroke-width:1;"/>
   <line x1="1226.5" y1="232" x2="1222.9644660941" y2="235.53553390593" style="stroke:#bbb;stroke-width:2;"/>
   <line x1="1226.5" y1="232" x2="1222.9644660941" y2="228.46446609407" style="stroke:#bbb;stroke-width:2;"/>
   <line x1="1226" y1="75" x2="1229.5355339059" y2="78.535533905933" style="stroke:#bbb;stroke-width:2;"/>
   <line x1="1226" y1="75" x2="1229.5355339059" y2="71.464466094067" style="stroke:#bbb;stroke-width:2;"/>
   <rect width="91" height="20" x="625" y="650" style="fill:#007;stroke:black;"/>
   <text width="91" height="20" x="630" y="664" style="fill:#fff;" font-family="Arial" font-size="16px"> A_ecrit</text>
   <rect width="91" height="20" x="625" y="670" style="fill:#aea;stroke:black;"/>
   <text width="91" height="20" x="630" y="684" style="fill:black;" font-family="Arial" font-size="16px">idAEcrit</text>
   <rect width="91" height="20" x="625" y="690" style="fill:none;stroke:black;"/>
   <text width="91" height="20" x="630" y="704" style="fill:black;" font-family="Arial" font-size="16px">idFilm</text>
   <rect width="91" height="20" x="625" y="710" style="fill:none;stroke:black;"/>
   <text width="91" height="20" x="630" y="724" style="fill:black;" font-family="Arial" font-size="16px">idPersonne</text>
   <rect width="91" height="20" x="769" y="331" style="fill:#007;stroke:black;"/>
   <text width="91" height="20" x="774" y="345" style="fill:#fff;" font-family="Arial" font-size="16px"> A_realise</text>
   <rect width="91" height="20" x="769" y="351" style="fill:#aea;stroke:black;"/>
   <text width="91" height="20" x="774" y="365" style="fill:black;" font-family="Arial" font-size="16px">idARealise</text>
   <rect width="91" height="20" x="769" y="371" style="fill:none;stroke:black;"/>
   <text width="91" height="20" x="774" y="385" style="fill:black;" font-family="Arial" font-size="16px">idPersonne</text>
   <rect width="91" height="20" x="769" y="391" style="fill:none;stroke:black;"/>
   <text width="91" height="20" x="774" y="405" style="fill:black;" font-family="Arial" font-size="16px">idFilm</text>
   <rect width="73" height="20" x="243" y="125" style="fill:#007;stroke:black;"/>
   <text width="73" height="20" x="248" y="139" style="fill:#fff;" font-family="Arial" font-size="16px"> Definit</text>
   <rect width="73" height="20" x="243" y="145" style="fill:#aea;stroke:black;"/>
   <text width="73" height="20" x="248" y="159" style="fill:black;" font-family="Arial" font-size="16px">idDefinit</text>
   <rect width="73" height="20" x="243" y="165" style="fill:none;stroke:black;"/>
   <text width="73" height="20" x="248" y="179" style="fill:black;" font-family="Arial" font-size="16px">idMotCle</text>
   <rect width="73" height="20" x="243" y="185" style="fill:none;stroke:black;"/>
   <text width="73" height="20" x="248" y="199" style="fill:black;" font-family="Arial" font-size="16px">idFilm</text>
   <rect width="90" height="20" x="837" y="126" style="fill:#007;stroke:black;"/>
   <text width="90" height="20" x="842" y="140" style="fill:#fff;" font-family="Arial" font-size="16px"> Est_genre</text>
   <rect width="90" height="20" x="837" y="146" style="fill:#aea;stroke:black;"/>
   <text width="90" height="20" x="842" y="160" style="fill:black;" font-family="Arial" font-size="16px">idEstGenre</text>
   <rect width="90" height="20" x="837" y="166" style="fill:none;stroke:black;"/>
   <text width="90" height="20" x="842" y="180" style="fill:black;" font-family="Arial" font-size="16px">idFilm</text>
   <rect width="90" height="20" x="837" y="186" style="fill:none;stroke:black;"/>
   <text width="90" height="20" x="842" y="200" style="fill:black;" font-family="Arial" font-size="16px">idGenre</text>
   <rect width="145" height="20" x="390" y="237" style="fill:#007;stroke:black;"/>
   <text width="145" height="20" x="395" y="251" style="fill:#fff;" font-family="Arial" font-size="16px"> Film</text>
   <rect width="145" height="20" x="390" y="257" style="fill:#aea;stroke:black;"/>
   <text width="145" height="20" x="395" y="271" style="fill:black;" font-family="Arial" font-size="16px">idFilm</text>
   <rect width="145" height="20" x="390" y="277" style="fill:none;stroke:black;"/>
   <text width="145" height="20" x="395" y="291" style="fill:black;" font-family="Arial" font-size="16px">resumeFilm</text>
   <rect width="145" height="20" x="390" y="297" style="fill:none;stroke:black;"/>
   <text width="145" height="20" x="395" y="311" style="fill:black;" font-family="Arial" font-size="16px">anneeFilm</text>
   <rect width="145" height="20" x="390" y="317" style="fill:none;stroke:black;"/>
   <text width="145" height="20" x="395" y="331" style="fill:black;" font-family="Arial" font-size="16px">dureeFilm</text>
   <rect width="145" height="20" x="390" y="337" style="fill:none;stroke:black;"/>
   <text width="145" height="20" x="395" y="351" style="fill:black;" font-family="Arial" font-size="16px">nomFilm</text>
   <rect width="145" height="20" x="390" y="357" style="fill:none;stroke:black;"/>
   <text width="145" height="20" x="395" y="371" style="fill:black;" font-family="Arial" font-size="16px">afficheFilm</text>
   <rect width="145" height="20" x="390" y="377" style="fill:none;stroke:black;"/>
   <text width="145" height="20" x="395" y="391" style="fill:black;" font-family="Arial" font-size="16px">lienBandeAnnonce</text>
   <rect width="145" height="20" x="390" y="397" style="fill:none;stroke:black;"/>
   <text width="145" height="20" x="395" y="411" style="fill:black;" font-family="Arial" font-size="16px">idUtilisateur</text>
   <rect width="86" height="20" x="824" y="17" style="fill:#007;stroke:black;"/>
   <text width="86" height="20" x="829" y="31" style="fill:#fff;" font-family="Arial" font-size="16px"> Genre</text>
   <rect width="86" height="20" x="824" y="37" style="fill:#aea;stroke:black;"/>
   <text width="86" height="20" x="829" y="51" style="fill:black;" font-family="Arial" font-size="16px">idGenre</text>
   <rect width="86" height="20" x="824" y="57" style="fill:none;stroke:black;"/>
   <text width="86" height="20" x="829" y="71" style="fill:black;" font-family="Arial" font-size="16px">nomGenre</text>
   <rect width="95" height="20" x="700" y="452" style="fill:#007;stroke:black;"/>
   <text width="95" height="20" x="705" y="466" style="fill:#fff;" font-family="Arial" font-size="16px"> Joue_Dans</text>
   <rect width="95" height="20" x="700" y="472" style="fill:#aea;stroke:black;"/>
   <text width="95" height="20" x="705" y="486" style="fill:black;" font-family="Arial" font-size="16px">idJoueDans</text>
   <rect width="95" height="20" x="700" y="492" style="fill:none;stroke:black;"/>
   <text width="95" height="20" x="705" y="506" style="fill:black;" font-family="Arial" font-size="16px">idPersonne</text>
   <rect width="95" height="20" x="700" y="512" style="fill:none;stroke:black;"/>
   <text width="95" height="20" x="705" y="526" style="fill:black;" font-family="Arial" font-size="16px">idFilm</text>
   <rect width="95" height="20" x="700" y="532" style="fill:none;stroke:black;"/>
   <text width="95" height="20" x="705" y="546" style="fill:black;" font-family="Arial" font-size="16px">role</text>
   <rect width="73" height="20" x="72" y="181" style="fill:#007;stroke:black;"/>
   <text width="73" height="20" x="77" y="195" style="fill:#fff;" font-family="Arial" font-size="16px"> MotCle</text>
   <rect width="73" height="20" x="72" y="201" style="fill:#aea;stroke:black;"/>
   <text width="73" height="20" x="77" y="215" style="fill:black;" font-family="Arial" font-size="16px">idMotCle</text>
   <rect width="73" height="20" x="72" y="221" style="fill:none;stroke:black;"/>
   <text width="73" height="20" x="77" y="235" style="fill:black;" font-family="Arial" font-size="16px">MotCle</text>
   <rect width="77" height="20" x="1144" y="45" style="fill:#007;stroke:black;"/>
   <text width="77" height="20" x="1149" y="59" style="fill:#fff;" font-family="Arial" font-size="16px"> Pays</text>
   <rect width="77" height="20" x="1144" y="65" style="fill:#aea;stroke:black;"/>
   <text width="77" height="20" x="1149" y="79" style="fill:black;" font-family="Arial" font-size="16px">idPays</text>
   <rect width="77" height="20" x="1144" y="85" style="fill:none;stroke:black;"/>
   <text width="77" height="20" x="1149" y="99" style="fill:black;" font-family="Arial" font-size="16px">nomPays</text>
   <rect width="110" height="20" x="1125" y="386" style="fill:#007;stroke:black;"/>
   <text width="110" height="20" x="1130" y="400" style="fill:#fff;" font-family="Arial" font-size="16px"> Personne</text>
   <rect width="110" height="20" x="1125" y="406" style="fill:#aea;stroke:black;"/>
   <text width="110" height="20" x="1130" y="420" style="fill:black;" font-family="Arial" font-size="16px">idPersonne</text>
   <rect width="110" height="20" x="1125" y="426" style="fill:none;stroke:black;"/>
   <text width="110" height="20" x="1130" y="440" style="fill:black;" font-family="Arial" font-size="16px">nomPersonne</text>
   <rect width="110" height="20" x="1125" y="446" style="fill:none;stroke:black;"/>
   <text width="110" height="20" x="1130" y="460" style="fill:black;" font-family="Arial" font-size="16px">idPays</text>
   <rect width="134" height="20" x="117" y="409" style="fill:#007;stroke:black;"/>
   <text width="134" height="20" x="122" y="423" style="fill:#fff;" font-family="Arial" font-size="16px"> Utilisateur</text>
   <rect width="134" height="20" x="117" y="429" style="fill:#aea;stroke:black;"/>
   <text width="134" height="20" x="122" y="443" style="fill:black;" font-family="Arial" font-size="16px">idUtilisateur</text>
   <rect width="134" height="20" x="117" y="449" style="fill:none;stroke:black;"/>
   <text width="134" height="20" x="122" y="463" style="fill:black;" font-family="Arial" font-size="16px">pseudoUtilisateur</text>
   <rect width="65" height="20" x="1154" y="202" style="fill:#007;stroke:black;"/>
   <text width="65" height="20" x="1159" y="216" style="fill:#fff;" font-family="Arial" font-size="16px"> Vient_de</text>
   <rect width="65" height="20" x="1154" y="222" style="fill:#aea;stroke:black;"/>
   <text width="65" height="20" x="1159" y="236" style="fill:black;" font-family="Arial" font-size="16px">idPays</text>
   <rect width="65" height="20" x="1154" y="242" style="fill:#aea;stroke:black;"/>
   <text width="65" height="20" x="1159" y="256" style="fill:black;" font-family="Arial" font-size="16px">idFilm</text>
</svg>
