<?xml version="1.0" encoding="UTF-8" standalone="no"?>
<!-- Created with Inkscape (http://www.inkscape.org/) -->

<svg
   xmlns:dc="http://purl.org/dc/elements/1.1/"
   xmlns:cc="http://creativecommons.org/ns#"
   xmlns:rdf="http://www.w3.org/1999/02/22-rdf-syntax-ns#"
   xmlns:svg="http://www.w3.org/2000/svg"
   xmlns="http://www.w3.org/2000/svg"
   xmlns:sodipodi="http://sodipodi.sourceforge.net/DTD/sodipodi-0.dtd"
   xmlns:inkscape="http://www.inkscape.org/namespaces/inkscape"
   width="400"
   height="750"
   viewBox="0 0 105.83334 198.4375"
   version="1.1"
   id="svg8"
   inkscape:version="0.92.3 (2405546, 2018-03-11)"
   sodipodi:docname="mockupMobileVoir.svg">
  <defs
     id="defs2" />
  <sodipodi:namedview
     id="base"
     pagecolor="#ffffff"
     bordercolor="#666666"
     borderopacity="1.0"
     inkscape:pageopacity="0.0"
     inkscape:pageshadow="2"
     inkscape:zoom="0.7"
     inkscape:cx="-13.222419"
     inkscape:cy="438.52007"
     inkscape:document-units="mm"
     inkscape:current-layer="layer1"
     showgrid="false"
     units="px"
     inkscape:window-width="1920"
     inkscape:window-height="1025"
     inkscape:window-x="0"
     inkscape:window-y="27"
     inkscape:window-maximized="1" />
  <metadata
     id="metadata5">
    <rdf:RDF>
      <cc:Work
         rdf:about="">
        <dc:format>image/svg+xml</dc:format>
        <dc:type
           rdf:resource="http://purl.org/dc/dcmitype/StillImage" />
        <dc:title></dc:title>
      </cc:Work>
    </rdf:RDF>
  </metadata>
  <g
     inkscape:label="Calque 1"
     inkscape:groupmode="layer"
     id="layer1"
     transform="translate(0,-98.562503)">
    <rect
       style="opacity:0.98000004;fill:#162d50;fill-opacity:1;stroke:none;stroke-width:0.616;stroke-miterlimit:4;stroke-dasharray:none;stroke-dashoffset:0;stroke-opacity:1"
       id="rect4593"
       width="105.83874"
       height="198.04671"
       x="0"
       y="98.953285" />
    <path
       id="path815"
       d="m 90.903874,112.06561 h 6.35 c 0.2921,0 0.529166,-0.23707 0.529166,-0.52917 0,-0.2921 -0.237066,-0.52917 -0.529166,-0.52917 h -6.35 c -0.2921,0 -0.529167,0.23707 -0.529167,0.52917 0,0.2921 0.237067,0.52917 0.529167,0.52917 z m 6.35,1.05833 h -6.35 c -0.2921,0 -0.529167,0.23707 -0.529167,0.52917 0,0.2921 0.237067,0.52916 0.529167,0.52916 h 6.35 c 0.2921,0 0.529166,-0.23706 0.529166,-0.52916 0,-0.2921 -0.237066,-0.52917 -0.529166,-0.52917 z m 0,2.11667 h -6.35 c -0.2921,0 -0.529167,0.23706 -0.529167,0.52916 0,0.2921 0.237067,0.52917 0.529167,0.52917 h 6.35 c 0.2921,0 0.529166,-0.23707 0.529166,-0.52917 0,-0.2921 -0.237066,-0.52916 -0.529166,-0.52916 z"
       inkscape:connector-curvature="0"
       style="fill:#ffffff;stroke-width:0.26458332" />
    <circle
       style="opacity:0.98000004;fill:#ffffff;fill-opacity:1;stroke:none;stroke-width:0.616;stroke-miterlimit:4;stroke-dasharray:none;stroke-dashoffset:0;stroke-opacity:1"
       id="path4591"
       cx="15.501632"
       cy="113.65311"
       r="10.690781" />
    <g
       id="g885"
       transform="matrix(0.03090091,0,0,0.03090091,8.3980961,106.06771)"
       style="fill:#002255">
      <g
         id="g828"
         style="fill:#002255">
        <g
           id="Layer_8_23_"
           style="fill:#002255">
          <path
             id="path825"
             d="M 406.657,149.964 H 122.883 L 393.961,71.115 c 5.842,-1.699 9.224,-7.841 7.517,-13.686 L 387.092,7.957 c -1.694,-5.844 -7.834,-9.215 -13.68,-7.518 L 42.666,96.647 c -5.844,1.699 -9.217,7.839 -7.52,13.685 l 14.39,49.47 c 0.353,1.212 0.936,2.293 1.632,3.267 v 49.456 c 0,6.086 4.951,11.04 11.042,11.04 h 7.356 v 219.999 c 0,4.879 3.962,8.829 8.832,8.829 H 390.46 c 4.87,0 8.83,-3.955 8.83,-8.829 V 223.565 h 7.354 c 6.085,0 11.043,-4.954 11.043,-11.04 v -51.521 c 0.012,-6.088 -4.946,-11.04 -11.03,-11.04 z m -146.672,4.416 h 35.337 l -35.224,64.769 h -35.33 z m -95.677,0 h 35.333 l -35.226,64.769 h -35.331 z m 157.24,-134.255 51.907,52.35 -33.913,9.87 -51.92,-52.354 z m -87.633,25.488 51.915,52.353 -33.923,9.866 -51.924,-52.351 z m -186.88,89.782 -7.647,-26.296 c -1.021,-3.508 1.008,-7.19 4.51,-8.208 l 9.805,-2.848 51.489,51.927 H 62.21 c -0.225,0 -0.439,0.057 -0.655,0.068 z m 44.854,18.985 -20.194,5.877 -1.665,-1.674 2.282,-4.203 z m -19.47,64.769 H 62.214 c -3.653,0 -6.629,-2.97 -6.629,-6.624 v -27.39 l 10.083,-18.528 41.961,-12.21 z M 142.034,72.341 193.95,124.692 160.027,134.561 108.11,82.207 Z M 356.75,347.402 H 110.937 V 333.158 H 356.75 Z m 0,-60.357 H 110.937 V 272.808 H 356.75 Z m -5.39,-67.896 h -35.331 l 35.216,-64.769 h 35.339 z"
             inkscape:connector-curvature="0"
             style="fill:#002255" />
        </g>
      </g>
      <g
         id="g830"
         style="fill:#002255" />
      <g
         id="g832"
         style="fill:#002255" />
      <g
         id="g834"
         style="fill:#002255" />
      <g
         id="g836"
         style="fill:#002255" />
      <g
         id="g838"
         style="fill:#002255" />
      <g
         id="g840"
         style="fill:#002255" />
      <g
         id="g842"
         style="fill:#002255" />
      <g
         id="g844"
         style="fill:#002255" />
      <g
         id="g846"
         style="fill:#002255" />
      <g
         id="g848"
         style="fill:#002255" />
      <g
         id="g850"
         style="fill:#002255" />
      <g
         id="g852"
         style="fill:#002255" />
      <g
         id="g854"
         style="fill:#002255" />
      <g
         id="g856"
         style="fill:#002255" />
      <g
         id="g858"
         style="fill:#002255" />
    </g>
    <flowRoot
       xml:space="preserve"
       id="flowRoot980"
       style="fill:black;fill-opacity:1;stroke:none;font-family:sans-serif;font-style:normal;font-weight:normal;font-size:40px;line-height:1.25;letter-spacing:0px;word-spacing:0px"><flowRegion
         id="flowRegion982"><rect
           id="rect984"
           width="19.192898"
           height="62.629459"
           x="125.25892"
           y="301.49228" /></flowRegion><flowPara
         id="flowPara986" /></flowRoot>    <rect
       style="opacity:0.98000004;fill:#ffffff;fill-opacity:1;stroke:none;stroke-width:0.3601231;stroke-miterlimit:4;stroke-dasharray:none;stroke-dashoffset:0;stroke-opacity:1"
       id="rect998"
       width="41.562473"
       height="60.937458"
       x="10.95805"
       y="135.83646" />
    <rect
       style="opacity:0.98000004;fill:#ffffff;fill-opacity:1;stroke:none;stroke-width:0.3601231;stroke-miterlimit:4;stroke-dasharray:none;stroke-dashoffset:0;stroke-opacity:1"
       id="rect998-5"
       width="41.562473"
       height="60.937458"
       x="56.45966"
       y="144.12183" />
    <rect
       style="opacity:0.98000004;fill:#ffffff;fill-opacity:1;stroke:none;stroke-width:0.3601231;stroke-miterlimit:4;stroke-dasharray:none;stroke-dashoffset:0;stroke-opacity:1"
       id="rect998-0"
       width="41.562473"
       height="60.937458"
       x="10.95805"
       y="201.59311" />
    <rect
       style="opacity:0.98000004;fill:#ffffff;fill-opacity:1;stroke:none;stroke-width:0.3601231;stroke-miterlimit:4;stroke-dasharray:none;stroke-dashoffset:0;stroke-opacity:1"
       id="rect998-57"
       width="41.562473"
       height="60.937458"
       x="56.60939"
       y="209.55136" />
    <rect
       style="opacity:0.98000004;fill:#ffffff;fill-opacity:1;stroke:none;stroke-width:0.25402904;stroke-miterlimit:4;stroke-dasharray:none;stroke-dashoffset:0;stroke-opacity:1"
       id="rect998-3"
       width="41.562473"
       height="30.321386"
       x="11.252245"
       y="266.72028" />
    <rect
       style="opacity:0.98000004;fill:#ffffff;fill-opacity:1;stroke:none;stroke-width:0.21641058;stroke-miterlimit:4;stroke-dasharray:none;stroke-dashoffset:0;stroke-opacity:1"
       id="rect998-2"
       width="41.562473"
       height="22.005909"
       x="56.798378"
       y="274.75226" />
  </g>
</svg>
